# xmcd
#
# Track frame offsets:
# 150
# 1671
# 10503
# 30270
# 48405
# 64209
# 77098
# 93808
# 108441
# 125694
# 139411
# 153874
# 167103
# 182760
#
# Disc length: 2634 seconds
#
#
# Revision: 1
# Processed by: cddbd v1.5.1PL0 Copyright (c) Steve Scherf et al.
# Submitted via: FreeRIP 2.90 
#
DISCID=a20a480e
DTITLE=Vira e Mexe - Virou Mania - Ao Vivo Marista Hall Belo Horizonte
DYEAR=2003
DGENRE=Blues
TTITLE0=Abertura
TTITLE1=Instrumental
TTITLE2=Chapa Quente
TTITLE3=Vira Vira
TTITLE4=Virou Mania
TTITLE5=Eh Moça
TTITLE6=Gruda
TTITLE7=Tô De Boa
TTITLE8=Frisson
TTITLE9=Ter Você Pra Mim
TTITLE10=Dá Dá Dá
TTITLE11=Gata Molhada
TTITLE12=Bomboiê
TTITLE13=Minas Com Bahia
EXTD=Gravado ao vivo no Marista Hall, Belo Horizonte (MG) no dia 13 de novembro de 2003.\ngugabhe@pop.com.br
EXTT0=
EXTT1=
EXTT2=
EXTT3=
EXTT4=
EXTT5=
EXTT6=
EXTT7=
EXTT8=
EXTT9=
EXTT10=
EXTT11=
EXTT12=
EXTT13=
PLAYORDER=
